#!OML:ASF X:\für Bonn\!DataBase\2005_08_10_Bjorn_Final\c3d\bjorn.ASF
:FULLY-SPECIFIED
:DEGREES
817
root -0.148119 1.55446 11.5175 -2070.18 -6.26219 188.392
lowerback -2.45013 0.181066 -3.68937
upperback 3.95198 0.410488 -4.63314
thorax 5.48788 0.0477147 -2.73491
lowerneck -17.8558 -5.38177 0.476655
upperneck 4.96443 -8.21114 5.40149
head 4.56031 -3.85056 0.855438
rclavicle 3.97569e-014 -1.72943e-014
rhumerus -56.889 43.7868 -104.383
rradius 111.835
rwrist -32.7223
rhand 11.3057 6.99388
rfingers 7.12502
rthumb 36.3637 -19.2325
lclavicle 3.97569e-014 -1.72943e-014
lhumerus -61.4218 -66.9885 105.452
lradius 112.509
lwrist 35.1008
lhand 5.79902 -11.9776
lfingers 7.12502
lthumb 31.1318 735.399
rfemur -367.438 -23.8838 366.89
rtibia 29.0392
rfoot 5.45875 -11.4339
rtoes 13.4598
lfemur -6.62774 2.10948 -15.016
ltibia 20.3973
lfoot 7.29086 9.26477
ltoes 2.8899
818
root -0.148321 1.55481 11.5174 -2070.18 -6.24813 188.385
lowerback -2.43752 0.183835 -3.67081
upperback 3.95557 0.412463 -4.63088
thorax 5.48451 0.0494047 -2.74277
lowerneck -17.8947 -5.38378 0.495722
upperneck 4.97219 -8.21435 5.36347
head 4.56622 -3.85302 0.839473
rclavicle -5.08889e-014 2.90226e-014
rhumerus -56.9056 43.7857 -104.393
rradius 111.852
rwrist -32.7285
rhand 11.2758 6.95528
rfingers 7.12502
rthumb 36.3354 -19.2781
lclavicle -5.08889e-014 2.90226e-014
lhumerus -61.3743 -66.984 105.404
lradius 112.502
lwrist 35.0919
lhand 5.81661 -11.9867
lfingers 7.12502
lthumb 31.1486 735.386
rfemur -367.427 -23.8867 366.901
rtibia 29.034
rfoot 5.46876 -11.4263
rtoes 13.4063
lfemur -6.614 2.10139 -15.0005
ltibia 20.4015
lfoot 7.26152 9.28815
ltoes 2.99852
819
root -0.148511 1.5549 11.518 -2070.18 -6.24776 188.386
lowerback -2.43729 0.183569 -3.66738
upperback 3.95779 0.412008 -4.63229
thorax 5.48675 0.049283 -2.74625
lowerneck -17.915 -5.38682 0.501015
upperneck 4.99461 -8.21967 5.35346
head 4.57581 -3.85502 0.834204
rclavicle -4.77083e-015 4.77083e-015
rhumerus -56.8964 43.767 -104.38
rradius 111.867
rwrist -32.7094
rhand 11.2895 6.9479
rfingers 7.12502
rthumb 36.3483 -19.2823
lclavicle -4.77083e-015 4.77083e-015
lhumerus -61.3264 -66.9847 105.339
lradius 112.505
lwrist 35.1051
lhand 5.8742 -11.9868
lfingers 7.12502
lthumb 31.2034 735.376
rfemur -367.421 -23.8841 366.901
rtibia 29.0289
rfoot 5.47784 -11.436
rtoes 13.4377
lfemur -6.61397 2.09728 -14.9994
ltibia 20.4057
lfoot 7.26093 9.29294
ltoes 2.94202
820
root -0.148518 1.55545 11.5178 -2070.19 -6.23409 188.384
lowerback -2.41795 0.183243 -3.65374
upperback 3.95016 0.409467 -4.62817
thorax 5.46755 0.0488956 -2.74939
lowerneck -17.9093 -5.3853 0.506521
upperneck 4.99437 -8.21662 5.34002
head 4.5739 -3.85412 0.829698
rclavicle 1.27222e-014 6.08281e-014
rhumerus -56.9161 43.7632 -104.391
rradius 111.865
rwrist -32.6879
rhand 11.3022 6.98418
rfingers 7.12502
rthumb 36.3604 -19.243
lclavicle 1.27222e-014 6.08281e-014
lhumerus -61.3411 -66.9688 105.349
lradius 112.495
lwrist 35.0962
lhand 5.88952 -12.0151
lfingers 7.12502
lthumb 31.218 735.345
rfemur -367.405 -23.8874 366.911
rtibia 29.0225
rfoot 5.47552 -11.4383
rtoes 13.3783
lfemur -6.60083 2.09756 -14.9824
ltibia 20.4122
lfoot 7.23944 9.30306
ltoes 3.00944
821
root -0.148363 1.5563 11.5176 -2070.19 -6.23206 188.368
lowerback -2.41091 0.190743 -3.63643
upperback 3.93779 0.417417 -4.6443
thorax 5.45091 0.0537536 -2.77518
lowerneck -17.9129 -5.38505 0.533166
upperneck 5.00208 -8.22152 5.32538
head 4.57525 -3.85679 0.820415
rclavicle 3.02153e-014 -2.38542e-014
rhumerus -56.9478 43.7237 -104.454
rradius 111.86
rwrist -32.6462
rhand 11.2877 6.9869
rfingers 7.12502
rthumb 36.3467 -19.2437
lclavicle 3.02153e-014 -2.38542e-014
lhumerus -61.3766 -66.9781 105.335
lradius 112.503
lwrist 35.0918
lhand 5.92873 -12.0487
lfingers 7.12502
lthumb 31.2554 735.304
rfemur -367.403 -23.8861 366.911
rtibia 29.0185
rfoot 5.48668 -11.4277
rtoes 13.3718
lfemur -6.59496 2.09999 -14.98
ltibia 20.4159
lfoot 7.22573 9.30997
ltoes 3.03144
822
root -0.148558 1.55667 11.5175 -2070.2 -6.21801 188.361
lowerback -2.40282 0.192695 -3.62192
upperback 3.94352 0.418964 -4.63795
thorax 5.45233 0.0550145 -2.77658
lowerneck -17.9596 -5.39103 0.515093
upperneck 5.02995 -8.22798 5.32995
head 4.59229 -3.8583 0.82233
rclavicle -3.65764e-014 4.81059e-014
rhumerus -56.9337 43.7245 -104.44
rradius 111.851
rwrist -32.632
rhand 11.2884 6.98361
rfingers 7.12502
rthumb 36.3473 -19.2468
lclavicle -3.65764e-014 4.81059e-014
lhumerus -61.3168 -66.969 105.282
lradius 112.505
lwrist 35.0755
lhand 5.96939 -12.0221
lfingers 7.12502
lthumb 31.2942 735.323
rfemur -367.394 -23.889 366.922
rtibia 29.0166
rfoot 5.49546 -11.4188
rtoes 13.3669
lfemur -6.58099 2.02875 -14.9698
ltibia 20.4171
lfoot 7.15915 9.38911
ltoes 3.02238
823
root -0.148198 1.55708 11.5172 -2070.21 -6.23158 188.368
lowerback -2.39171 0.189692 -3.64021
upperback 3.94646 0.414964 -4.64042
thorax 5.44891 0.052145 -2.7692
lowerneck -17.9676 -5.38892 0.514776
upperneck 5.02583 -8.22353 5.32028
head 4.59167 -3.85656 0.819722
rclavicle -5.24792e-014 6.97734e-014
rhumerus -56.9282 43.726 -104.435
rradius 111.859
rwrist -32.5955
rhand 11.2934 6.9852
rfingers 7.12502
rthumb 36.3521 -19.244
lclavicle -5.24792e-014 6.97734e-014
lhumerus -61.2688 -66.957 105.233
lradius 112.489
lwrist 35.0636
lhand 5.97621 -12.0545
lfingers 7.12502
lthumb 31.3007 735.289
rfemur -367.38 -23.8755 366.905
rtibia 29.0165
rfoot 5.479 -11.4294
rtoes 13.3742
lfemur -6.57239 2.03696 -14.9817
ltibia 20.4184
lfoot 7.16399 9.38349
ltoes 2.9822
